<svg xmlns="http://www.w3.org/2000/svg" fill="none" viewBox="0 0 367 152"><mask id="a" width="367" height="152" x="0" y="0" mask-type="alpha" maskUnits="userSpaceOnUse"><rect width="366" height="151" x=".92" y=".627" fill="#737ADE" rx="12"/></mask><g fill-opacity=".16" fill-rule="evenodd" clip-rule="evenodd" mask="url(#a)"><path fill="url(#paint0_linear)" d="M276.386 163.634c25.775 25.775 67.564 25.775 93.338 0 25.775-25.775 25.775-67.563 0-93.338-25.774-25.775-67.563-25.775-93.338 0-25.774 25.774-25.774 67.563 0 93.338z"/><path fill="url(#paint1_linear)" d="M-26.18 106.095c27.727 27.727 72.681 27.727 100.409 0 27.727-27.727 27.727-72.682 0-100.41-27.727-27.726-72.682-27.726-100.41 0-27.727 27.728-27.727 72.683 0 100.41z"/></g><defs><linearGradient id="paint0_linear" x1="369.724" x2="276.386" y1="70.296" y2="163.634" gradientUnits="userSpaceOnUse"><stop stop-color="#21288A"/><stop offset="1" stop-color="#A3278F" stop-opacity="0"/></linearGradient><linearGradient id="paint1_linear" x1="74.229" x2="-26.18" y1="5.686" y2="106.095" gradientUnits="userSpaceOnUse"><stop stop-color="#21288A"/><stop offset="1" stop-color="#A3278F" stop-opacity="0"/></linearGradient></defs></svg>